<mxfile host="app.diagrams.net" modified="2021-03-30T14:26:02.332Z" agent="5.0 (X11)" etag="UmpmoutXSeKP00n15dzW" version="14.5.3" type="github">
  <diagram id="Ow7XXK1PikN14GVvSEU8" name="Page-1">
    <mxGraphModel dx="1125" dy="670" grid="1" gridSize="10" guides="1" tooltips="1" connect="1" arrows="1" fold="1" page="1" pageScale="1" pageWidth="827" pageHeight="1169" math="0" shadow="0">
      <root>
        <mxCell id="0" />
        <mxCell id="1" parent="0" />
        <mxCell id="oyKfMeNTfIV8HZ3sEzMM-3" value="" style="curved=1;endArrow=classic;html=1;entryX=0;entryY=0.375;entryDx=0;entryDy=0;exitX=0;exitY=1;exitDx=0;exitDy=0;entryPerimeter=0;" edge="1" parent="1" source="oyKfMeNTfIV8HZ3sEzMM-4" target="oyKfMeNTfIV8HZ3sEzMM-4">
          <mxGeometry width="50" height="50" relative="1" as="geometry">
            <mxPoint x="140" y="430" as="sourcePoint" />
            <mxPoint x="190" y="380" as="targetPoint" />
            <Array as="points">
              <mxPoint x="60" y="230" />
              <mxPoint x="30" y="230" />
              <mxPoint x="20" y="200" />
              <mxPoint x="30" y="180" />
            </Array>
          </mxGeometry>
        </mxCell>
        <mxCell id="oyKfMeNTfIV8HZ3sEzMM-4" value="" style="ellipse;whiteSpace=wrap;html=1;aspect=fixed;" vertex="1" parent="1">
          <mxGeometry x="60" y="150" width="80" height="80" as="geometry" />
        </mxCell>
        <mxCell id="oyKfMeNTfIV8HZ3sEzMM-6" value="" style="endArrow=classic;html=1;entryX=0;entryY=0;entryDx=0;entryDy=0;" edge="1" parent="1" target="oyKfMeNTfIV8HZ3sEzMM-4">
          <mxGeometry width="50" height="50" relative="1" as="geometry">
            <mxPoint x="30" y="120" as="sourcePoint" />
            <mxPoint x="20" y="170" as="targetPoint" />
          </mxGeometry>
        </mxCell>
        <mxCell id="oyKfMeNTfIV8HZ3sEzMM-7" value="" style="whiteSpace=wrap;html=1;aspect=fixed;" vertex="1" parent="1">
          <mxGeometry x="260" y="150" width="80" height="80" as="geometry" />
        </mxCell>
        <mxCell id="oyKfMeNTfIV8HZ3sEzMM-8" value="" style="endArrow=classic;html=1;entryX=0;entryY=0.5;entryDx=0;entryDy=0;exitX=1;exitY=0.5;exitDx=0;exitDy=0;" edge="1" parent="1" source="oyKfMeNTfIV8HZ3sEzMM-4" target="oyKfMeNTfIV8HZ3sEzMM-7">
          <mxGeometry width="50" height="50" relative="1" as="geometry">
            <mxPoint x="520" y="190" as="sourcePoint" />
            <mxPoint x="570" y="140" as="targetPoint" />
          </mxGeometry>
        </mxCell>
        <mxCell id="oyKfMeNTfIV8HZ3sEzMM-10" value="" style="curved=1;endArrow=classic;html=1;exitX=0.75;exitY=1;exitDx=0;exitDy=0;entryX=1.016;entryY=0.661;entryDx=0;entryDy=0;entryPerimeter=0;" edge="1" parent="1" source="oyKfMeNTfIV8HZ3sEzMM-7" target="oyKfMeNTfIV8HZ3sEzMM-7">
          <mxGeometry width="50" height="50" relative="1" as="geometry">
            <mxPoint x="350" y="250" as="sourcePoint" />
            <mxPoint x="400" y="200" as="targetPoint" />
            <Array as="points">
              <mxPoint x="330" y="250" />
              <mxPoint x="370" y="250" />
              <mxPoint x="380" y="220" />
              <mxPoint x="360" y="203" />
            </Array>
          </mxGeometry>
        </mxCell>
        <mxCell id="oyKfMeNTfIV8HZ3sEzMM-11" value="" style="curved=1;endArrow=classic;html=1;exitX=0.75;exitY=0;exitDx=0;exitDy=0;entryX=1;entryY=0.25;entryDx=0;entryDy=0;" edge="1" parent="1" source="oyKfMeNTfIV8HZ3sEzMM-7" target="oyKfMeNTfIV8HZ3sEzMM-7">
          <mxGeometry width="50" height="50" relative="1" as="geometry">
            <mxPoint x="371.28" y="129.9999999999999" as="sourcePoint" />
            <mxPoint x="350" y="157.12" as="targetPoint" />
            <Array as="points">
              <mxPoint x="340" y="120" />
              <mxPoint x="380" y="130" />
              <mxPoint x="380" y="160" />
              <mxPoint x="360" y="177.12" />
            </Array>
          </mxGeometry>
        </mxCell>
        <mxCell id="oyKfMeNTfIV8HZ3sEzMM-12" value="" style="curved=1;endArrow=classic;html=1;entryX=0;entryY=0.375;entryDx=0;entryDy=0;exitX=0;exitY=1;exitDx=0;exitDy=0;entryPerimeter=0;" edge="1" parent="1" source="oyKfMeNTfIV8HZ3sEzMM-13" target="oyKfMeNTfIV8HZ3sEzMM-13">
          <mxGeometry width="50" height="50" relative="1" as="geometry">
            <mxPoint x="570" y="435" as="sourcePoint" />
            <mxPoint x="620" y="385" as="targetPoint" />
            <Array as="points">
              <mxPoint x="490" y="235" />
              <mxPoint x="460" y="235" />
              <mxPoint x="450" y="205" />
              <mxPoint x="460" y="185" />
            </Array>
          </mxGeometry>
        </mxCell>
        <mxCell id="oyKfMeNTfIV8HZ3sEzMM-13" value="" style="ellipse;whiteSpace=wrap;html=1;aspect=fixed;" vertex="1" parent="1">
          <mxGeometry x="490" y="155" width="80" height="80" as="geometry" />
        </mxCell>
        <mxCell id="oyKfMeNTfIV8HZ3sEzMM-14" value="" style="endArrow=classic;html=1;entryX=0;entryY=0;entryDx=0;entryDy=0;" edge="1" parent="1" target="oyKfMeNTfIV8HZ3sEzMM-13">
          <mxGeometry width="50" height="50" relative="1" as="geometry">
            <mxPoint x="460" y="125" as="sourcePoint" />
            <mxPoint x="450" y="175" as="targetPoint" />
          </mxGeometry>
        </mxCell>
        <mxCell id="oyKfMeNTfIV8HZ3sEzMM-16" value="" style="endArrow=classic;html=1;entryX=0;entryY=0.5;entryDx=0;entryDy=0;exitX=1;exitY=0.5;exitDx=0;exitDy=0;" edge="1" parent="1" source="oyKfMeNTfIV8HZ3sEzMM-13">
          <mxGeometry width="50" height="50" relative="1" as="geometry">
            <mxPoint x="950" y="195" as="sourcePoint" />
            <mxPoint x="690" y="195" as="targetPoint" />
          </mxGeometry>
        </mxCell>
        <mxCell id="oyKfMeNTfIV8HZ3sEzMM-17" value="" style="curved=1;endArrow=classic;html=1;" edge="1" parent="1" source="oyKfMeNTfIV8HZ3sEzMM-19" target="oyKfMeNTfIV8HZ3sEzMM-19">
          <mxGeometry width="50" height="50" relative="1" as="geometry">
            <mxPoint x="750" y="235" as="sourcePoint" />
            <mxPoint x="771.2800000000002" y="207.87999999999988" as="targetPoint" />
            <Array as="points">
              <mxPoint x="760" y="255" />
              <mxPoint x="800" y="255" />
              <mxPoint x="810" y="225" />
              <mxPoint x="790" y="208" />
            </Array>
          </mxGeometry>
        </mxCell>
        <mxCell id="oyKfMeNTfIV8HZ3sEzMM-18" value="" style="curved=1;endArrow=classic;html=1;exitX=0.754;exitY=0.073;exitDx=0;exitDy=0;entryX=0.942;entryY=0.288;entryDx=0;entryDy=0;entryPerimeter=0;exitPerimeter=0;" edge="1" parent="1" source="oyKfMeNTfIV8HZ3sEzMM-19" target="oyKfMeNTfIV8HZ3sEzMM-19">
          <mxGeometry width="50" height="50" relative="1" as="geometry">
            <mxPoint x="750" y="155" as="sourcePoint" />
            <mxPoint x="770" y="175" as="targetPoint" />
            <Array as="points">
              <mxPoint x="760" y="130" />
              <mxPoint x="810" y="135" />
              <mxPoint x="810" y="165" />
              <mxPoint x="790" y="182.12" />
            </Array>
          </mxGeometry>
        </mxCell>
        <mxCell id="oyKfMeNTfIV8HZ3sEzMM-19" value="" style="ellipse;whiteSpace=wrap;html=1;aspect=fixed;" vertex="1" parent="1">
          <mxGeometry x="690" y="155" width="80" height="80" as="geometry" />
        </mxCell>
        <mxCell id="oyKfMeNTfIV8HZ3sEzMM-20" value="" style="curved=1;endArrow=classic;html=1;entryX=0;entryY=0.375;entryDx=0;entryDy=0;exitX=0;exitY=1;exitDx=0;exitDy=0;entryPerimeter=0;" edge="1" parent="1" source="oyKfMeNTfIV8HZ3sEzMM-21" target="oyKfMeNTfIV8HZ3sEzMM-21">
          <mxGeometry width="50" height="50" relative="1" as="geometry">
            <mxPoint x="190" y="830" as="sourcePoint" />
            <mxPoint x="240" y="780" as="targetPoint" />
            <Array as="points">
              <mxPoint x="110" y="630" />
              <mxPoint x="80" y="630" />
              <mxPoint x="70" y="600" />
              <mxPoint x="80" y="580" />
            </Array>
          </mxGeometry>
        </mxCell>
        <mxCell id="oyKfMeNTfIV8HZ3sEzMM-21" value="" style="ellipse;whiteSpace=wrap;html=1;aspect=fixed;" vertex="1" parent="1">
          <mxGeometry x="110" y="550" width="80" height="80" as="geometry" />
        </mxCell>
        <mxCell id="oyKfMeNTfIV8HZ3sEzMM-22" value="" style="endArrow=classic;html=1;entryX=0;entryY=0;entryDx=0;entryDy=0;" edge="1" parent="1" target="oyKfMeNTfIV8HZ3sEzMM-21">
          <mxGeometry width="50" height="50" relative="1" as="geometry">
            <mxPoint x="80" y="520" as="sourcePoint" />
            <mxPoint x="70" y="570" as="targetPoint" />
          </mxGeometry>
        </mxCell>
        <mxCell id="oyKfMeNTfIV8HZ3sEzMM-23" value="" style="whiteSpace=wrap;html=1;aspect=fixed;" vertex="1" parent="1">
          <mxGeometry x="300" y="540" width="80" height="80" as="geometry" />
        </mxCell>
        <mxCell id="oyKfMeNTfIV8HZ3sEzMM-24" value="" style="endArrow=classic;html=1;entryX=0.385;entryY=0.979;entryDx=0;entryDy=0;exitX=1;exitY=0.5;exitDx=0;exitDy=0;entryPerimeter=0;" edge="1" parent="1" source="oyKfMeNTfIV8HZ3sEzMM-21" target="oyKfMeNTfIV8HZ3sEzMM-28">
          <mxGeometry width="50" height="50" relative="1" as="geometry">
            <mxPoint x="570" y="590" as="sourcePoint" />
            <mxPoint x="620" y="540" as="targetPoint" />
            <Array as="points">
              <mxPoint x="340" y="700" />
            </Array>
          </mxGeometry>
        </mxCell>
        <mxCell id="oyKfMeNTfIV8HZ3sEzMM-25" value="" style="curved=1;endArrow=classic;html=1;entryX=1.016;entryY=0.661;entryDx=0;entryDy=0;entryPerimeter=0;exitX=0.5;exitY=0;exitDx=0;exitDy=0;" edge="1" parent="1" source="oyKfMeNTfIV8HZ3sEzMM-28" target="oyKfMeNTfIV8HZ3sEzMM-23">
          <mxGeometry width="50" height="50" relative="1" as="geometry">
            <mxPoint x="360" y="450" as="sourcePoint" />
            <mxPoint x="440" y="390" as="targetPoint" />
            <Array as="points">
              <mxPoint x="530" y="460" />
              <mxPoint x="410" y="460" />
              <mxPoint x="440" y="470" />
              <mxPoint x="390" y="490" />
            </Array>
          </mxGeometry>
        </mxCell>
        <mxCell id="oyKfMeNTfIV8HZ3sEzMM-26" value="" style="curved=1;endArrow=classic;html=1;exitX=0.75;exitY=0;exitDx=0;exitDy=0;entryX=1;entryY=0.25;entryDx=0;entryDy=0;" edge="1" parent="1" source="oyKfMeNTfIV8HZ3sEzMM-23" target="oyKfMeNTfIV8HZ3sEzMM-23">
          <mxGeometry width="50" height="50" relative="1" as="geometry">
            <mxPoint x="421.28" y="529.9999999999999" as="sourcePoint" />
            <mxPoint x="400" y="557.12" as="targetPoint" />
            <Array as="points">
              <mxPoint x="390" y="520" />
              <mxPoint x="430" y="530" />
              <mxPoint x="430" y="560" />
              <mxPoint x="410" y="577.12" />
            </Array>
          </mxGeometry>
        </mxCell>
        <mxCell id="oyKfMeNTfIV8HZ3sEzMM-27" value="" style="curved=1;endArrow=classic;html=1;entryX=0;entryY=0.375;entryDx=0;entryDy=0;exitX=0;exitY=1;exitDx=0;exitDy=0;entryPerimeter=0;" edge="1" parent="1" source="oyKfMeNTfIV8HZ3sEzMM-28" target="oyKfMeNTfIV8HZ3sEzMM-28">
          <mxGeometry width="50" height="50" relative="1" as="geometry">
            <mxPoint x="580" y="830" as="sourcePoint" />
            <mxPoint x="630" y="780" as="targetPoint" />
            <Array as="points">
              <mxPoint x="500" y="630" />
              <mxPoint x="470" y="630" />
              <mxPoint x="460" y="600" />
              <mxPoint x="470" y="580" />
            </Array>
          </mxGeometry>
        </mxCell>
        <mxCell id="oyKfMeNTfIV8HZ3sEzMM-28" value="" style="ellipse;whiteSpace=wrap;html=1;aspect=fixed;" vertex="1" parent="1">
          <mxGeometry x="500" y="550" width="80" height="80" as="geometry" />
        </mxCell>
        <mxCell id="oyKfMeNTfIV8HZ3sEzMM-29" value="" style="endArrow=classic;html=1;entryX=0;entryY=0;entryDx=0;entryDy=0;" edge="1" parent="1" target="oyKfMeNTfIV8HZ3sEzMM-28">
          <mxGeometry width="50" height="50" relative="1" as="geometry">
            <mxPoint x="470" y="520" as="sourcePoint" />
            <mxPoint x="460" y="570" as="targetPoint" />
          </mxGeometry>
        </mxCell>
        <mxCell id="oyKfMeNTfIV8HZ3sEzMM-30" value="" style="endArrow=classic;html=1;entryX=0;entryY=0.5;entryDx=0;entryDy=0;exitX=1;exitY=0.5;exitDx=0;exitDy=0;" edge="1" parent="1" source="oyKfMeNTfIV8HZ3sEzMM-28">
          <mxGeometry width="50" height="50" relative="1" as="geometry">
            <mxPoint x="960" y="590" as="sourcePoint" />
            <mxPoint x="700" y="590" as="targetPoint" />
          </mxGeometry>
        </mxCell>
        <mxCell id="oyKfMeNTfIV8HZ3sEzMM-31" value="" style="curved=1;endArrow=classic;html=1;" edge="1" parent="1" source="oyKfMeNTfIV8HZ3sEzMM-33" target="oyKfMeNTfIV8HZ3sEzMM-33">
          <mxGeometry width="50" height="50" relative="1" as="geometry">
            <mxPoint x="760" y="630" as="sourcePoint" />
            <mxPoint x="781.2800000000002" y="602.8799999999999" as="targetPoint" />
            <Array as="points">
              <mxPoint x="770" y="650" />
              <mxPoint x="810" y="650" />
              <mxPoint x="820" y="620" />
              <mxPoint x="800" y="603" />
            </Array>
          </mxGeometry>
        </mxCell>
        <mxCell id="oyKfMeNTfIV8HZ3sEzMM-32" value="" style="curved=1;endArrow=classic;html=1;exitX=0.754;exitY=0.073;exitDx=0;exitDy=0;entryX=0.942;entryY=0.288;entryDx=0;entryDy=0;entryPerimeter=0;exitPerimeter=0;" edge="1" parent="1" source="oyKfMeNTfIV8HZ3sEzMM-33" target="oyKfMeNTfIV8HZ3sEzMM-33">
          <mxGeometry width="50" height="50" relative="1" as="geometry">
            <mxPoint x="760" y="550" as="sourcePoint" />
            <mxPoint x="780" y="570" as="targetPoint" />
            <Array as="points">
              <mxPoint x="770" y="525" />
              <mxPoint x="820" y="530" />
              <mxPoint x="820" y="560" />
              <mxPoint x="800" y="577.12" />
            </Array>
          </mxGeometry>
        </mxCell>
        <mxCell id="oyKfMeNTfIV8HZ3sEzMM-33" value="" style="ellipse;whiteSpace=wrap;html=1;aspect=fixed;" vertex="1" parent="1">
          <mxGeometry x="700" y="550" width="80" height="80" as="geometry" />
        </mxCell>
        <mxCell id="oyKfMeNTfIV8HZ3sEzMM-34" value="(3)" style="text;html=1;align=center;verticalAlign=middle;resizable=0;points=[];autosize=1;" vertex="1" parent="1">
          <mxGeometry x="295" y="720" width="30" height="20" as="geometry" />
        </mxCell>
        <mxCell id="oyKfMeNTfIV8HZ3sEzMM-35" value="E\join" style="text;html=1;align=center;verticalAlign=middle;resizable=0;points=[];autosize=1;" vertex="1" parent="1">
          <mxGeometry x="10" y="235" width="50" height="20" as="geometry" />
        </mxCell>
        <mxCell id="oyKfMeNTfIV8HZ3sEzMM-36" value="E\join" style="text;html=1;align=center;verticalAlign=middle;resizable=0;points=[];autosize=1;" vertex="1" parent="1">
          <mxGeometry x="315" y="90" width="50" height="20" as="geometry" />
        </mxCell>
        <mxCell id="oyKfMeNTfIV8HZ3sEzMM-37" value="join" style="text;html=1;align=center;verticalAlign=middle;resizable=0;points=[];autosize=1;" vertex="1" parent="1">
          <mxGeometry x="330" y="255" width="30" height="20" as="geometry" />
        </mxCell>
        <mxCell id="oyKfMeNTfIV8HZ3sEzMM-38" value="E\join" style="text;html=1;align=center;verticalAlign=middle;resizable=0;points=[];autosize=1;" vertex="1" parent="1">
          <mxGeometry x="60" y="640" width="50" height="20" as="geometry" />
        </mxCell>
        <mxCell id="oyKfMeNTfIV8HZ3sEzMM-39" value="join" style="text;html=1;align=center;verticalAlign=middle;resizable=0;points=[];autosize=1;" vertex="1" parent="1">
          <mxGeometry x="180" y="170" width="30" height="20" as="geometry" />
        </mxCell>
        <mxCell id="oyKfMeNTfIV8HZ3sEzMM-40" value="E\quit" style="text;html=1;align=center;verticalAlign=middle;resizable=0;points=[];autosize=1;" vertex="1" parent="1">
          <mxGeometry x="450" y="240" width="50" height="20" as="geometry" />
        </mxCell>
        <mxCell id="oyKfMeNTfIV8HZ3sEzMM-41" value="quit" style="text;html=1;align=center;verticalAlign=middle;resizable=0;points=[];autosize=1;" vertex="1" parent="1">
          <mxGeometry x="620" y="170" width="30" height="20" as="geometry" />
        </mxCell>
        <mxCell id="oyKfMeNTfIV8HZ3sEzMM-42" value="quit" style="text;html=1;align=center;verticalAlign=middle;resizable=0;points=[];autosize=1;" vertex="1" parent="1">
          <mxGeometry x="770" y="270" width="30" height="20" as="geometry" />
        </mxCell>
        <mxCell id="oyKfMeNTfIV8HZ3sEzMM-43" value="E\quit" style="text;html=1;align=center;verticalAlign=middle;resizable=0;points=[];autosize=1;" vertex="1" parent="1">
          <mxGeometry x="760" y="110" width="50" height="20" as="geometry" />
        </mxCell>
      </root>
    </mxGraphModel>
  </diagram>
</mxfile>
